<mxfile host="app.diagrams.net" modified="2024-05-02T15:01:37.574Z" agent="Mozilla/5.0 (Windows NT 10.0; Win64; x64) AppleWebKit/537.36 (KHTML, like Gecko) Chrome/124.0.0.0 Safari/537.36 Edg/124.0.0.0" version="24.3.1" etag="mm0EXlWzdhzMonPMY2FM" type="onedrive">
  <diagram name="PÃ¡gina-1" id="cpt4G-5WnoYgrwLkWSIz">
    <mxGraphModel>
      <root>
        <mxCell id="0" />
        <mxCell id="1" parent="0" />
      </root>
    </mxGraphModel>
  </diagram>
</mxfile>
